<?xml version="1.0" standalone="no"?><svg xmlns="http://www.w3.org/2000/svg" viewBox="0 0 1440 320"><path fill="#ffffff" fill-opacity="1" d="M0,224L24,208C48,192,96,160,144,149.3C192,139,240,149,288,149.3C336,149,384,139,432,149.3C480,160,528,192,576,176C624,160,672,96,720,112C768,128,816,224,864,256C912,288,960,256,1008,240C1056,224,1104,224,1152,186.7C1200,149,1248,75,1296,80C1344,85,1392,171,1416,213.3L1440,256L1440,0L1416,0C1392,0,1344,0,1296,0C1248,0,1200,0,1152,0C1104,0,1056,0,1008,0C960,0,912,0,864,0C816,0,768,0,720,0C672,0,624,0,576,0C528,0,480,0,432,0C384,0,336,0,288,0C240,0,192,0,144,0C96,0,48,0,24,0L0,0Z"></path></svg>